<?xml version="1.0" encoding="utf-8"?>
<!-- Generator: Adobe Illustrator 25.3.1, SVG Export Plug-In . SVG Version: 6.00 Build 0)  -->
<svg version="1.1" id="Layer_1" xmlns="http://www.w3.org/2000/svg" xmlns:xlink="http://www.w3.org/1999/xlink" x="0px" y="0px"
	 viewBox="0 0 1984.25 141.73" style="enable-background:new 0 0 1984.25 141.73;" xml:space="preserve">
<style type="text/css">
	.st0{fill:#2C3A47;}
</style>
<polygon class="st0" points="1913.39,59.95 1842.52,109.02 1771.65,59.95 1700.79,109.02 1629.92,59.95 1559.06,109.02 
	1488.19,59.95 1417.32,109.02 1346.46,59.95 1275.59,109.02 1204.72,59.95 1133.86,109.02 1062.99,59.95 992.13,109.02 
	921.26,59.95 850.39,109.02 779.53,59.95 708.66,109.02 637.8,59.95 566.93,109.02 496.06,59.95 425.2,109.02 354.33,59.95 
	283.46,109.02 212.6,59.95 141.73,109.02 70.87,59.95 0,109.02 0,141.73 992.13,141.73 1984.25,141.73 1984.25,109.02 "/>
</svg>
